<svg width="492" height="492" viewBox="0 0 492 492" fill="none" xmlns="http://www.w3.org/2000/svg">
<path d="M120.675 196.362C120.047 196.076 119.306 196.355 119.02 196.983C118.735 197.612 119.013 198.353 119.642 198.638L120.675 196.362ZM189.658 179.5L190.534 180.393L190.534 180.393L189.658 179.5ZM222.658 154L222.216 152.831L222.136 152.861L222.061 152.902L222.658 154ZM245.158 150L245.118 151.249L245.158 151.251L245.197 151.249L245.158 150ZM293.158 148.5L293.197 149.749L293.309 149.746L293.418 149.723L293.158 148.5ZM323.658 135L324.542 134.116L322.458 135.35L323.658 135ZM311.658 175.5L310.478 175.911L311.072 177.618L312.459 176.46L311.658 175.5ZM306.391 144.795C306.278 144.114 305.634 143.654 304.953 143.767C304.272 143.881 303.812 144.525 303.925 145.205L306.391 144.795ZM222.107 180.878C221.487 181.183 221.232 181.932 221.537 182.551C221.841 183.171 222.59 183.426 223.21 183.122L222.107 180.878ZM273.409 201.043C273.433 201.733 274.012 202.273 274.702 202.249C275.391 202.225 275.931 201.647 275.908 200.957L273.409 201.043ZM230.915 191.505C230.365 191.087 229.581 191.194 229.163 191.743C228.746 192.293 228.852 193.077 229.402 193.495L230.915 191.505ZM255.021 197.696C255.681 197.496 256.055 196.798 255.855 196.138C255.655 195.477 254.957 195.104 254.296 195.304L255.021 197.696ZM312.88 176.733C312.732 176.059 312.066 175.631 311.392 175.779C310.717 175.926 310.29 176.592 310.437 177.267L312.88 176.733ZM305.281 193.61C304.789 194.095 304.784 194.886 305.269 195.378C305.753 195.869 306.545 195.875 307.036 195.39L305.281 193.61ZM310.066 184.101C310.674 184.428 311.432 184.2 311.759 183.593C312.086 182.985 311.859 182.227 311.251 181.899L310.066 184.101ZM290.658 191.5L291.892 191.704C291.898 191.668 291.902 191.632 291.905 191.596L290.658 191.5ZM289.658 205L290.907 205.056L290.908 205.034L290.908 205.013L289.658 205ZM290.158 229.5L288.91 229.567L288.914 229.631L288.924 229.694L290.158 229.5ZM275.158 233.5L274.481 234.55C274.504 234.565 274.527 234.579 274.551 234.593L275.158 233.5ZM262.69 232.71C262.253 233.245 262.333 234.033 262.868 234.469C263.404 234.905 264.191 234.825 264.627 234.29L262.69 232.71ZM258.184 223.714C258.579 223.147 258.439 222.368 257.872 221.974C257.306 221.58 256.527 221.719 256.132 222.286L258.184 223.714ZM256.719 235.825C257.175 236.344 257.965 236.395 258.483 235.939C259.002 235.483 259.053 234.694 258.597 234.175L256.719 235.825ZM307.408 195C307.408 194.31 306.849 193.75 306.158 193.75C305.468 193.75 304.908 194.31 304.908 195H307.408ZM306.158 201.5L306.516 202.698L307.408 202.431V201.5H306.158ZM291.172 199.86C290.543 199.577 289.803 199.857 289.519 200.486C289.235 201.116 289.515 201.856 290.145 202.14L291.172 199.86ZM121.902 197.626C121.972 196.939 121.471 196.326 120.785 196.256C120.098 196.187 119.484 196.687 119.415 197.374L121.902 197.626ZM128.658 224.5L129.67 223.765L129.664 223.757L129.658 223.749L128.658 224.5ZM136.158 242.5L137.403 242.383L137.398 242.334L137.39 242.284L136.158 242.5ZM137.658 258.5L136.414 258.617L136.438 258.878L136.566 259.107L137.658 258.5ZM169.089 281.748C169.778 281.787 170.368 281.259 170.407 280.57C170.445 279.88 169.918 279.29 169.228 279.252L169.089 281.748ZM149.892 203.795C149.779 203.114 149.135 202.654 148.454 202.767C147.773 202.88 147.312 203.524 147.425 204.205L149.892 203.795ZM151.053 217L149.828 217.249L149.828 217.249L151.053 217ZM168.391 208.79C168.275 208.109 167.629 207.652 166.948 207.768C166.268 207.884 165.81 208.53 165.926 209.21L168.391 208.79ZM194.177 283.274C194.605 283.816 195.391 283.909 195.933 283.481C196.475 283.054 196.567 282.268 196.14 281.726L194.177 283.274ZM259.351 258.96C258.777 258.577 258.001 258.733 257.618 259.307C257.235 259.882 257.391 260.658 257.966 261.04L259.351 258.96ZM276.978 264.209C277.645 264.032 278.043 263.348 277.867 262.681C277.691 262.013 277.007 261.615 276.339 261.791L276.978 264.209ZM248.823 251.261C248.139 251.17 247.511 251.651 247.419 252.335C247.328 253.019 247.809 253.648 248.494 253.739L248.823 251.261ZM260.84 252.5L260.523 251.291L260.476 251.303L260.43 251.319L260.84 252.5ZM264.659 251.5L265.452 250.534L264.959 250.129L264.342 250.291L264.659 251.5ZM277.159 254L277.96 253.04L277.44 252.606L276.792 252.805L277.159 254ZM285.461 259.734C286.143 259.843 286.784 259.379 286.893 258.698C287.002 258.016 286.538 257.375 285.856 257.266L285.461 259.734ZM307.401 201.86C307.324 201.174 306.705 200.681 306.019 200.758C305.333 200.835 304.839 201.453 304.916 202.14L307.401 201.86ZM305.159 221.5L303.945 221.201L303.945 221.201L305.159 221.5ZM290.159 262L289.045 261.433L289.04 261.443L289.035 261.452L290.159 262ZM235.205 280.376C234.584 280.074 233.836 280.333 233.534 280.953C233.232 281.574 233.491 282.322 234.112 282.624L235.205 280.376ZM275.159 297.5H273.909V297.684L273.962 297.861L275.159 297.5ZM297.159 318L296.955 319.233L297.056 319.25H297.159V318ZM312.659 318V319.25H312.784L312.907 319.225L312.659 318ZM347.158 311V309.75H347.033L346.91 309.775L347.158 311ZM361.658 311L362.008 309.8L361.837 309.75H361.658V311ZM387.158 325L388.08 324.155L388.035 324.106L387.985 324.062L387.158 325ZM403.658 343L404.791 342.471L404.71 342.297L404.58 342.155L403.658 343ZM403.658 371.5L404.865 371.826L404.868 371.817L404.87 371.807L403.658 371.5ZM385.158 410.5L386.09 411.334L386.133 411.285L386.171 411.233L385.158 410.5ZM293.659 466.5L293.9 467.726L293.958 467.715L294.014 467.698L293.659 466.5ZM221.659 472.5L221.562 473.746L221.597 473.749L221.633 473.75L221.659 472.5ZM119.658 441.5L118.908 442.499L118.952 442.533L118.999 442.562L119.658 441.5ZM88.1585 389L87.0207 388.482L86.9995 388.529L86.9822 388.577L88.1585 389ZM152.658 324.5L152.439 323.269L152.367 323.282L152.297 323.303L152.658 324.5ZM186.14 323.5L187.297 323.029L187.297 323.029L186.14 323.5ZM210.511 384.495C210.784 385.129 211.52 385.421 212.154 385.148C212.788 384.874 213.08 384.138 212.806 383.505L210.511 384.495ZM312.465 175.452C312.051 174.9 311.268 174.788 310.715 175.202C310.163 175.616 310.051 176.4 310.465 176.952L312.465 175.452ZM311.381 177.549C312.048 177.726 312.733 177.33 312.911 176.663C313.089 175.996 312.692 175.311 312.025 175.133L311.381 177.549ZM119.642 198.638C119.803 198.712 119.964 198.784 120.125 198.856L121.148 196.575C120.991 196.505 120.833 196.434 120.675 196.362L119.642 198.638ZM120.125 198.856C134.076 205.115 145.309 206.879 156.329 203.776C167.284 200.691 177.827 192.85 190.534 180.393L188.783 178.607C176.136 191.007 165.969 198.464 155.652 201.369C145.401 204.256 134.799 202.699 121.148 196.575L120.125 198.856ZM190.534 180.393C203.332 167.845 207.766 163.595 210.861 161.433C212.362 160.384 213.541 159.833 215.332 159.019C217.138 158.199 219.498 157.142 223.256 155.098L222.061 152.902C218.384 154.902 216.09 155.93 214.299 156.743C212.493 157.563 211.133 158.193 209.429 159.384C206.116 161.699 201.485 166.155 188.783 178.607L190.534 180.393ZM223.101 155.169C231.241 152.089 235.897 150.953 245.118 151.249L245.199 148.751C235.575 148.441 230.588 149.663 222.216 152.831L223.101 155.169ZM245.197 151.249L293.197 149.749L293.119 147.251L245.119 148.751L245.197 151.249ZM293.418 149.723C300.875 148.141 308.582 144.932 314.416 142.033C317.338 140.581 319.81 139.197 321.569 138.117C322.445 137.579 323.159 137.106 323.668 136.732C323.919 136.548 324.145 136.369 324.32 136.207C324.406 136.127 324.505 136.028 324.595 135.914C324.645 135.85 324.859 135.585 324.909 135.196L322.429 134.878C322.455 134.681 322.523 134.544 322.554 134.487C322.589 134.422 322.621 134.38 322.633 134.365C322.656 134.336 322.659 134.337 322.62 134.374C322.545 134.443 322.406 134.557 322.187 134.718C321.756 135.035 321.106 135.467 320.26 135.987C318.573 137.024 316.167 138.372 313.303 139.795C307.565 142.646 300.069 145.756 292.899 147.277L293.418 149.723ZM324.909 135.197C324.949 134.887 324.884 134.458 324.542 134.116L322.774 135.884C322.631 135.74 322.525 135.562 322.467 135.364C322.412 135.174 322.413 135.004 322.429 134.878L324.909 135.197ZM322.458 135.35C322.462 135.361 322.465 135.373 322.469 135.386L324.87 134.689C324.866 134.677 324.862 134.664 324.859 134.65L322.458 135.35ZM322.469 135.386C325.317 145.189 325.855 151.995 324.054 157.778C322.253 163.56 318.044 168.542 310.857 174.54L312.459 176.46C319.752 170.373 324.42 165.007 326.441 158.521C328.461 152.035 327.764 144.652 324.87 134.688L322.469 135.386ZM312.839 175.089C309.068 164.255 307.904 153.873 306.391 144.795L303.925 145.205C305.412 154.127 306.616 164.817 310.478 175.911L312.839 175.089ZM223.21 183.122C237.878 175.912 250.252 173.564 258.965 176.337C263.277 177.709 266.734 180.345 269.192 184.363C271.664 188.404 273.163 193.907 273.409 201.043L275.908 200.957C275.652 193.537 274.087 187.575 271.324 183.058C268.547 178.519 264.598 175.506 259.723 173.954C250.063 170.88 236.939 173.588 222.107 180.878L223.21 183.122ZM229.402 193.495C233.765 196.813 237.454 198.745 241.483 199.374C245.499 200.001 249.697 199.309 255.021 197.696L254.296 195.304C249.096 196.878 245.329 197.444 241.869 196.904C238.422 196.366 235.123 194.704 230.915 191.505L229.402 193.495ZM310.437 177.267C311.291 181.174 311.321 183.866 310.552 186.221C309.777 188.592 308.137 190.792 305.281 193.61L307.036 195.39C309.98 192.486 311.965 189.943 312.928 186.998C313.896 184.037 313.776 180.839 312.88 176.733L310.437 177.267ZM311.251 181.899C307.949 180.122 305.026 178.91 302.467 178.328C299.907 177.746 297.619 177.775 295.671 178.599C291.705 180.277 289.915 184.861 289.412 191.404L291.905 191.596C292.401 185.139 294.111 181.973 296.645 180.901C297.948 180.35 299.659 180.254 301.913 180.766C304.166 181.278 306.867 182.378 310.066 184.101L311.251 181.899ZM289.425 191.296C288.599 196.285 288.467 199.388 288.408 204.987L290.908 205.013C290.967 199.471 291.095 196.512 291.892 191.704L289.425 191.296ZM288.41 204.944C287.962 214.971 288.41 220.2 288.91 229.567L291.407 229.433C290.904 220.032 290.466 214.935 290.907 205.056L288.41 204.944ZM274.551 234.593C279.159 237.153 283.55 238.202 286.776 237.404C288.433 236.993 289.813 236.081 290.659 234.622C291.492 233.185 291.717 231.371 291.393 229.306L288.924 229.694C289.189 231.383 288.958 232.571 288.496 233.368C288.046 234.145 287.29 234.701 286.175 234.977C283.856 235.551 280.157 234.847 275.765 232.407L274.551 234.593ZM275.836 232.45C272.939 230.58 270.573 229.419 268.417 229.404C266.101 229.387 264.354 230.668 262.69 232.71L264.627 234.29C266.099 232.485 267.2 231.895 268.399 231.904C269.758 231.914 271.575 232.676 274.481 234.55L275.836 232.45ZM256.132 222.286C254.371 224.818 253.312 227.001 253.401 229.256C253.49 231.527 254.728 233.559 256.719 235.825L258.597 234.175C256.697 232.013 255.953 230.535 255.899 229.158C255.844 227.765 256.481 226.162 258.184 223.714L256.132 222.286ZM304.908 195V201.5H307.408V195H304.908ZM305.801 200.302C302.395 201.32 299.978 201.74 297.821 201.659C295.682 201.578 293.701 201.001 291.172 199.86L290.145 202.14C292.839 203.354 295.149 204.06 297.726 204.157C300.284 204.254 303.005 203.747 306.516 202.698L305.801 200.302ZM119.415 197.374C119.407 197.447 119.4 197.52 119.393 197.593L121.881 197.838C121.888 197.768 121.895 197.697 121.902 197.626L119.415 197.374ZM119.393 197.593C118.791 203.702 119.081 208.309 120.45 212.583C121.814 216.842 124.216 220.669 127.659 225.251L129.658 223.749C126.265 219.233 124.065 215.675 122.831 211.821C121.601 207.981 121.299 203.745 121.881 197.838L119.393 197.593ZM137.39 242.284C136.724 238.482 136.007 235.502 134.837 232.633C133.665 229.76 132.059 227.053 129.67 223.765L127.647 225.235C129.965 228.423 131.451 230.952 132.522 233.578C133.595 236.207 134.275 238.989 134.927 242.716L137.39 242.284ZM134.914 242.617L136.414 258.617L138.903 258.383L137.403 242.383L134.914 242.617ZM136.566 259.107C140.979 267.059 144.953 272.538 149.958 276.115C154.996 279.715 160.94 281.293 169.089 281.748L169.228 279.252C161.331 278.81 155.917 277.3 151.412 274.081C146.874 270.839 143.121 265.766 138.751 257.893L136.566 259.107ZM147.425 204.205C148.15 208.569 148.945 212.9 149.828 217.249L152.278 216.751C151.401 212.433 150.611 208.132 149.892 203.795L147.425 204.205ZM165.926 209.21C167.347 217.538 168.757 224.809 170.242 231.28L172.679 230.72C171.207 224.309 169.806 217.087 168.391 208.79L165.926 209.21ZM170.242 231.28C175.733 255.197 182.26 268.172 194.177 283.274L196.14 281.726C184.469 266.937 178.093 254.305 172.679 230.72L170.242 231.28ZM149.961 217.609C153.499 223.948 156.491 228.193 159.853 230.544C163.339 232.982 167.069 233.291 171.741 232.218L171.181 229.782C166.948 230.754 164.011 230.401 161.286 228.496C158.439 226.504 155.68 222.727 152.144 216.391L149.961 217.609ZM257.966 261.04C261.257 263.232 264.025 264.592 267.017 265.098C270.009 265.604 273.094 265.234 276.978 264.209L276.339 261.791C272.612 262.775 269.924 263.054 267.434 262.633C264.942 262.211 262.516 261.067 259.351 258.96L257.966 261.04ZM248.494 253.739C254.283 254.51 257.726 254.904 261.25 253.681L260.43 251.319C257.568 252.313 254.747 252.049 248.823 251.261L248.494 253.739ZM264.342 250.291L260.523 251.291L261.156 253.709L264.975 252.709L264.342 250.291ZM276.792 252.805C274.352 253.553 272.653 253.836 271.044 253.561C269.444 253.288 267.763 252.434 265.452 250.534L263.865 252.466C266.328 254.49 268.41 255.648 270.624 256.026C272.828 256.402 274.992 255.972 277.525 255.195L276.792 252.805ZM276.357 254.96C279.731 257.776 281.803 259.149 285.461 259.734L285.856 257.266C282.866 256.787 281.217 255.759 277.96 253.04L276.357 254.96ZM304.916 202.14C305.84 210.367 305.624 214.394 303.945 221.201L306.372 221.799C308.133 214.663 308.352 210.334 307.401 201.86L304.916 202.14ZM303.945 221.201C299.814 237.975 296.529 246.731 289.045 261.433L291.272 262.567C298.845 247.693 302.196 238.756 306.372 221.799L303.945 221.201ZM276.087 285.337C282.618 278.1 286.046 273.289 291.282 262.548L289.035 261.452C283.901 271.983 280.604 276.6 274.23 283.663L276.087 285.337ZM234.112 282.624C243.668 287.271 250.855 289.906 257.286 290.415C263.789 290.928 269.4 289.26 275.783 285.583L274.535 283.417C268.456 286.919 263.348 288.386 257.483 287.922C251.545 287.453 244.713 284.999 235.205 280.376L234.112 282.624ZM273.909 284.5V297.5H276.409V284.5H273.909ZM273.962 297.861C276.116 305.014 278.515 309.878 282.142 313.199C285.784 316.533 290.504 318.169 296.955 319.233L297.362 316.767C291.086 315.731 286.94 314.202 283.831 311.355C280.707 308.495 278.47 304.159 276.355 297.139L273.962 297.861ZM312.659 316.75H297.159V319.25H312.659V316.75ZM346.91 309.775L312.41 316.775L312.907 319.225L347.407 312.225L346.91 309.775ZM361.658 309.75H347.158V312.25H361.658V309.75ZM387.985 324.062C383.503 320.11 379.797 317.346 375.795 315.164C371.794 312.983 367.545 311.412 362.008 309.8L361.309 312.2C366.76 313.787 370.819 315.299 374.599 317.359C378.378 319.419 381.928 322.055 386.332 325.938L387.985 324.062ZM386.237 325.845L402.737 343.845L404.58 342.155L388.08 324.155L386.237 325.845ZM402.526 343.529C404.468 347.686 405.259 351.322 405.177 355.513C405.094 359.753 404.12 364.599 402.447 371.193L404.87 371.807C406.546 365.201 407.588 360.114 407.677 355.562C407.766 350.962 406.883 346.948 404.791 342.471L402.526 343.529ZM402.452 371.174C397.85 388.188 393.758 396.489 384.146 409.767L386.171 411.233C395.96 397.71 400.184 389.134 404.865 371.826L402.452 371.174ZM384.227 409.666C370.34 425.178 358.396 435.865 344.563 444.279C330.723 452.698 314.933 458.878 293.303 465.302L294.014 467.698C315.734 461.248 331.758 454.995 345.862 446.415C359.975 437.831 372.105 426.955 386.09 411.334L384.227 409.666ZM293.417 465.274C266.634 470.548 250.936 471.849 221.684 471.25L221.633 473.75C251.051 474.351 266.929 473.039 293.9 467.726L293.417 465.274ZM221.755 471.254C199.711 469.543 183.072 467.24 167.594 462.675C152.129 458.113 137.77 451.276 120.318 440.438L118.999 442.562C136.582 453.481 151.148 460.43 166.887 465.073C182.614 469.711 199.457 472.031 221.562 473.746L221.755 471.254ZM120.409 440.501C104.973 428.906 95.6857 420.351 91.009 412.576C88.6898 408.721 87.5202 405.079 87.2919 401.364C87.063 397.638 87.7759 393.758 89.3347 389.423L86.9822 388.577C85.3462 393.127 84.541 397.355 84.7966 401.517C85.0529 405.688 86.3703 409.715 88.8667 413.865C93.8211 422.101 103.478 430.91 118.908 442.499L120.409 440.501ZM89.2962 389.518C98.5194 369.249 106.583 355.702 116.244 346.022C125.874 336.371 137.172 330.484 153.02 325.697L152.297 323.303C136.198 328.166 124.487 334.222 114.474 344.256C104.491 354.259 96.2784 368.138 87.0207 388.482L89.2962 389.518ZM149.828 217.249C155.792 246.613 165.761 276.766 184.982 323.971L187.297 323.029C168.1 275.879 158.196 245.892 152.278 216.751L149.828 217.249ZM184.982 323.971C192.123 341.51 200.543 361.407 210.511 384.495L212.806 383.505C202.841 360.424 194.429 340.544 187.297 323.029L184.982 323.971ZM152.878 325.731C165.884 323.408 173.087 323.031 185.975 324.739L186.304 322.261C173.123 320.514 165.659 320.909 152.439 323.269L152.878 325.731ZM310.465 176.952C310.788 177.382 311.216 177.505 311.381 177.549L312.025 175.133C312.005 175.128 312.071 175.143 312.16 175.19C312.267 175.247 312.377 175.334 312.465 175.452L310.465 176.952Z" fill="black"/>
</svg>
